HIERARCHY
ROOT Hips
{
	OFFSET 0.000000 0.000000 0.000000
	CHANNELS 6 Xposition Yposition Zposition Zrotation Yrotation Xrotation 
	JOINT LHipJoint
	{
		OFFSET 0.000000 0.000000 0.000000
		CHANNELS 3 Zrotation Yrotation Xrotation
		JOINT LeftUpLeg
		{
			OFFSET 1.363060 -1.794630 0.839290
			CHANNELS 3 Zrotation Yrotation Xrotation
			JOINT LeftLeg
			{
				OFFSET 2.448110 -6.726130 0.000000
				CHANNELS 3 Zrotation Yrotation Xrotation
				JOINT LeftFoot
				{
					OFFSET 2.562200 -7.039590 0.000000
					CHANNELS 3 Zrotation Yrotation Xrotation
					JOINT LeftToeBase
					{
						OFFSET 0.157640 -0.433110 2.322550
						CHANNELS 3 Zrotation Yrotation Xrotation
						End Site
						{
							OFFSET 0.000000 0.000000 0.000000
						}
					}
				}
			}
		}
	}
	JOINT RHipJoint
	{
		OFFSET 0.000000 0.000000 0.000000
		CHANNELS 3 Zrotation Yrotation Xrotation
		JOINT RightUpLeg
		{
			OFFSET -1.305520 -1.794630 0.839290
			CHANNELS 3 Zrotation Yrotation Xrotation
			JOINT RightLeg
			{
				OFFSET -2.542530 -6.985550 0.000000
				CHANNELS 3 Zrotation Yrotation Xrotation
				JOINT RightFoot
				{
					OFFSET -2.568260 -7.056230 0.000000
					CHANNELS 3 Zrotation Yrotation Xrotation
					JOINT RightToeBase
					{
						OFFSET -0.164730 -0.452590 2.363150
						CHANNELS 3 Zrotation Yrotation Xrotation
						End Site
						{
							OFFSET 0.000000 0.000000 0.000000
						}
					}
				}
			}
		}
	}
	JOINT LowerBack
	{
		OFFSET 0.000000 0.000000 0.000000
		CHANNELS 3 Zrotation Yrotation Xrotation
		JOINT Spine
		{
			OFFSET 0.028270 2.035590 -0.193380
			CHANNELS 3 Zrotation Yrotation Xrotation
			JOINT Spine1
			{
				OFFSET 0.056720 2.048850 -0.042750
				CHANNELS 3 Zrotation Yrotation Xrotation
				JOINT Neck
				{
					OFFSET 0.000000 0.000000 0.000000
					CHANNELS 3 Zrotation Yrotation Xrotation
					JOINT Neck1
					{
						OFFSET -0.054170 1.746240 0.172020
						CHANNELS 3 Zrotation Yrotation Xrotation
						JOINT Head
						{
							OFFSET 0.104070 1.761360 -0.123970
							CHANNELS 3 Zrotation Yrotation Xrotation
							End Site
							{
								OFFSET 0.000000 0.000000 0.000000
							}
						}
					}
				}
				JOINT LeftShoulder
				{
					OFFSET 0.000000 0.000000 0.000000
					CHANNELS 3 Zrotation Yrotation Xrotation
					JOINT LeftArm
					{
						OFFSET 3.362410 1.200890 -0.311210
						CHANNELS 3 Zrotation Yrotation Xrotation
						JOINT LeftForeArm
						{
							OFFSET 4.983000 -0.000000 -0.000000
							CHANNELS 3 Zrotation Yrotation Xrotation
							JOINT LeftHand
							{
								OFFSET 3.483560 -0.000000 -0.000000
								CHANNELS 3 Zrotation Yrotation Xrotation
								JOINT LeftFingerBase
								{
									OFFSET 0.000000 0.000000 0.000000
									CHANNELS 3 Zrotation Yrotation Xrotation
									JOINT LeftHandIndex1
									{
										OFFSET 0.715260 -0.000000 -0.000000
										CHANNELS 3 Zrotation Yrotation Xrotation
										End Site
										{
											OFFSET 0.000000 0.000000 0.000000
										}
									}
								}
								JOINT LThumb
								{
									OFFSET 0.000000 0.000000 0.000000
									CHANNELS 3 Zrotation Yrotation Xrotation
									End Site
									{
										OFFSET 0.000000 0.000000 0.000000
									}
								}
							}
						}
					}
				}
				JOINT RightShoulder
				{
					OFFSET 0.000000 0.000000 0.000000
					CHANNELS 3 Zrotation Yrotation Xrotation
					JOINT RightArm
					{
						OFFSET -3.136600 1.374050 -0.404650
						CHANNELS 3 Zrotation Yrotation Xrotation
						JOINT RightForeArm
						{
							OFFSET -5.241900 -0.000000 -0.000000
							CHANNELS 3 Zrotation Yrotation Xrotation
							JOINT RightHand
							{
								OFFSET -3.444170 -0.000000 -0.000000
								CHANNELS 3 Zrotation Yrotation Xrotation
								JOINT RightFingerBase
								{
									OFFSET 0.000000 0.000000 0.000000
									CHANNELS 3 Zrotation Yrotation Xrotation
									JOINT RightHandIndex1
									{
										OFFSET -0.622530 -0.000000 -0.000000
										CHANNELS 3 Zrotation Yrotation Xrotation
										End Site
										{
											OFFSET 0.000000 0.000000 0.000000
										}
									}
								}
								JOINT RThumb
								{
									OFFSET 0.000000 0.000000 0.000000
									CHANNELS 3 Zrotation Yrotation Xrotation
									End Site
									{
										OFFSET 0.000000 0.000000 0.000000
									}
								}
							}
						}
					}
				}
			}
		}
	}
}
MOTION
Frames: 8
Frame Time: 0.016667
-0.058553 17.049044 -0.286743 -0.880877 -5.172075 4.459880 -10.892256 2.010637 -14.644855 -2.578011 -2.984525 -22.633384 -8.276713 10.577469 14.162408 1.192800 16.050999 29.388662 0.000000 0.000000 0.000000 10.370616 -9.060766 4.434787 8.593289 5.145009 -7.056333 -6.534656 -14.503466 41.377150 3.854813 -0.430993 -15.316906 0.000000 0.000000 0.000000 -0.847756 3.767791 12.491212 0.651571 3.601922 -16.453274 1.969379 4.838807 -6.904301 1.443654 0.382485 -4.696093 0.707172 -0.113131 5.431851 0.000000 0.000000 0.000000 1.030768 20.211290 12.976421 -61.801723 3.075372 -0.521566 -16.358878 19.536079 0.087291 -1.062397 -3.189766 0.043645 -1.062581 -3.190699 0.000000 0.000000 0.000000 0.000000 0.000000 0.000000 0.000000 0.188535 -21.083997 14.067232 58.466698 -1.704410 -2.985710 8.528904 48.706134 -0.014478 -0.744738 0.935351 -0.007253 -0.745410 0.935248 0.000000 0.000000 0.000000 0.000000 0.000000 0.000000 0.000000 
-0.046265 17.108835 -0.158616 -0.458807 -5.844361 4.124592 -11.824611 -0.033836 -15.519943 0.202606 -2.220624 -23.006705 -8.869587 12.908126 18.504042 1.194946 16.837001 29.046082 0.000000 0.000000 0.000000 11.988333 -7.152544 4.616319 5.892978 5.355245 -8.086408 -6.763116 -15.712260 44.106918 4.331718 -3.259386 -9.991467 0.000000 0.000000 0.000000 -1.190572 3.842081 12.759840 0.435519 3.625628 -19.143605 1.698559 5.168571 -5.753961 0.494911 0.784058 -5.751364 1.496674 -0.091671 6.073340 0.000000 0.000000 0.000000 1.478074 19.986435 14.329543 -61.863366 4.418503 -0.482508 -14.864662 18.211217 0.075242 -0.993161 -2.706498 0.037623 -0.993351 -2.707261 0.000000 0.000000 0.000000 0.000000 0.000000 0.000000 0.000000 0.569094 -21.347095 14.938856 58.205243 -2.907428 -4.398316 4.832551 47.850176 -0.028157 -0.789407 0.672712 -0.014099 -0.790337 0.672522 0.000000 0.000000 0.000000 0.000000 0.000000 0.000000 0.000000 
-0.031597 17.170444 -0.031073 -0.014020 -6.486800 3.732255 -12.471920 -1.737023 -16.298026 2.348993 -1.556279 -23.051227 -9.307840 14.832348 22.128916 1.230043 17.976061 29.641015 0.000000 0.000000 0.000000 13.304022 -5.438264 4.749480 3.554814 5.398532 -8.766808 -7.031755 -16.706390 46.327499 4.765220 -6.151779 -4.282768 0.000000 0.000000 0.000000 -1.490429 3.872987 12.892143 0.449382 3.630380 -21.743607 0.785820 5.610331 -4.130269 -0.268706 1.277731 -6.823901 2.507565 -0.045189 6.432539 0.000000 0.000000 0.000000 2.147666 19.653486 15.516354 -61.856540 5.584788 -0.445964 -13.569901 16.800348 0.062968 -0.936137 -2.260441 0.031488 -0.936311 -2.261043 0.000000 0.000000 0.000000 0.000000 0.000000 0.000000 0.000000 -0.030394 -21.263992 15.787079 58.691964 -3.644992 -5.684505 3.730181 45.039306 -0.052734 -0.888099 0.462139 -0.026401 -0.889609 0.461799 0.000000 0.000000 0.000000 0.000000 0.000000 0.000000 0.000000 
-0.016161 17.209712 0.109440 0.180428 -6.345160 3.792724 -12.915463 -2.463016 -16.472589 3.032308 -1.441362 -23.014648 -9.305765 15.409581 23.529801 1.142047 17.965755 29.148676 0.000000 0.000000 0.000000 13.925434 -4.551724 4.702529 2.271236 5.426258 -9.225367 -6.835589 -17.540321 47.606067 5.268511 -8.726710 0.195042 0.000000 0.000000 0.000000 -1.491412 3.882178 13.075761 0.022362 3.496801 -22.620147 0.594004 5.534261 -3.271046 -0.586246 1.384625 -8.089410 2.729231 -0.048004 6.688543 0.000000 0.000000 0.000000 3.094849 18.870820 15.912750 -62.195993 5.381094 -0.247786 -16.611904 13.957939 0.069197 -0.686659 -2.297983 0.034601 -0.686841 -2.298671 0.000000 0.000000 0.000000 0.000000 0.000000 0.000000 0.000000 -0.788070 -20.863944 16.313523 60.268660 -3.642606 -6.281443 2.751999 44.378376 -0.050778 -0.902290 0.632787 -0.025423 -0.903814 0.632433 0.000000 0.000000 0.000000 0.000000 0.000000 0.000000 0.000000 
0.000989 17.249797 0.248688 0.354460 -6.219840 3.848221 -13.328825 -3.135479 -16.630159 3.659871 -1.334487 -22.961489 -9.285200 15.947055 24.852725 1.064329 17.999450 28.783019 0.000000 0.000000 0.000000 14.454960 -3.729464 4.613218 1.135177 5.391581 -9.557788 -6.679636 -18.269631 48.644100 5.755331 -11.342908 4.701151 0.000000 0.000000 0.000000 -1.448400 3.900402 13.271051 -0.435969 3.361521 -23.531784 0.366734 5.472388 -2.353359 -0.892918 1.487581 -9.327590 2.967763 -0.049648 6.920953 0.000000 0.000000 0.000000 3.954173 18.084576 16.414116 -62.312433 5.306734 0.120371 -19.912492 10.263793 0.075116 -0.422210 -2.371338 0.037560 -0.422404 -2.372086 0.000000 0.000000 0.000000 0.000000 0.000000 0.000000 0.000000 -1.493997 -20.445558 16.823176 61.858188 -3.620456 -6.824898 1.727410 43.716092 -0.048253 -0.920399 0.803067 -0.024161 -0.921910 0.802704 0.000000 0.000000 0.000000 0.000000 0.000000 0.000000 0.000000 
0.025050 17.273157 0.393924 0.445424 -5.937185 3.906463 -13.551584 -3.329972 -16.533841 3.660805 -1.417724 -22.803893 -9.194435 16.119461 25.445456 0.927433 17.555340 27.694491 0.000000 0.000000 0.000000 14.470290 -3.401063 4.478124 0.854735 5.393220 -9.501623 -6.664122 -18.627682 49.121643 6.197991 -13.454175 8.101290 0.000000 0.000000 0.000000 -1.159342 3.896329 13.323186 -0.829609 3.179073 -23.890916 -0.070377 5.350183 -1.721391 -0.823912 1.548217 -9.879719 3.116233 -0.035645 6.868352 0.000000 0.000000 0.000000 4.303360 17.815366 16.319542 -62.322664 5.204314 0.149110 -20.193798 9.227694 0.072891 -0.411301 -2.331155 0.036447 -0.411486 -2.331875 -0.000000 0.000000 0.000000 0.000000 0.000000 0.000000 0.000000 -2.331434 -20.018545 17.104399 63.104192 -3.456404 -6.983317 1.876814 41.753563 -0.046599 -0.934879 0.976461 -0.023332 -0.936359 0.976111 0.000000 0.000000 0.000000 0.000000 0.000000 0.000000 0.000000 
0.050917 17.296460 0.537815 0.533520 -5.668044 3.963582 -13.773633 -3.513294 -16.429792 3.656070 -1.493614 -22.642278 -9.106627 16.283483 26.004883 0.801983 17.126794 26.640716 0.000000 0.000000 0.000000 14.471107 -3.100249 4.341366 0.594773 5.369997 -9.423250 -6.656670 -18.944597 49.498816 6.623835 -15.585123 11.408254 0.000000 0.000000 0.000000 -0.858373 3.894358 13.367035 -1.218373 2.997704 -24.240703 -0.516148 5.237690 -1.096805 -0.774360 1.606312 -10.393979 3.276450 -0.020928 6.802102 0.000000 0.000000 0.000000 4.643572 17.548573 16.227087 -62.326292 5.111020 0.165829 -20.430665 8.227129 0.070656 -0.403187 -2.288455 0.035329 -0.403363 -2.289147 0.000000 0.000000 0.000000 0.000000 0.000000 0.000000 0.000000 -3.149641 -19.580146 17.352779 64.298943 -3.301618 -7.049847 2.010112 39.773270 -0.044888 -0.948943 1.138068 -0.022474 -0.950369 1.137735 0.000000 0.000000 0.000000 0.000000 0.000000 0.000000 0.000000 
0.073817 17.321251 0.690375 0.656534 -5.358516 3.990856 -13.896987 -3.594261 -16.314695 3.548319 -1.610841 -22.517070 -9.153612 16.492374 26.655934 0.704577 16.802797 25.726627 0.000000 0.000000 0.000000 14.535477 -2.970599 4.355967 0.395607 5.393611 -9.425960 -6.945564 -19.105072 49.783496 7.016479 -17.648897 14.550035 0.000000 0.000000 0.000000 -0.663677 3.944133 13.209323 -1.891611 2.793371 -23.970590 -0.497417 5.043644 -0.864620 -0.856185 1.597477 -10.686858 3.315905 -0.025557 6.822930 0.000000 0.000000 0.000000 4.982979 17.320465 16.139861 -62.474020 4.954220 0.242500 -20.550001 6.854775 0.070385 -0.348654 -2.282631 0.035194 -0.348839 -2.283304 0.000000 0.000000 0.000000 0.000000 0.000000 0.000000 0.000000 -3.418731 -19.431574 17.368711 65.295932 -3.123351 -7.183447 0.469228 38.463550 -0.034834 -0.896130 1.263759 -0.017440 -0.897258 1.263486 0.000000 0.000000 0.000000 0.000000 0.000000 0.000000 0.000000 
